<svg version="1" xmlns="http://www.w3.org/2000/svg" width="682.667" height="682.667" viewBox="0 0 512.000000 512.000000"><path d="M232 1c-50.2 5.2-98.2 24.8-136.5 55.7-28.8 23.2-51.7 51.8-68.4 85.4C14.7 167 6.7 192.3 2.4 220.5c-2.6 16.9-2.6 54.1 0 71 7.1 46.5 26 89.9 54.3 125 23.2 28.8 51.8 51.7 85.4 68.4 24.9 12.4 50.2 20.4 78.4 24.7 16.9 2.6 54.1 2.6 71 0 46.5-7.1 89.9-26 125-54.3 28.8-23.2 51.7-51.8 68.4-85.4 12.4-24.9 20.4-50.2 24.7-78.4 2.6-16.9 2.6-54.1 0-71-7.1-46.5-26-89.9-54.3-125-23.2-28.8-51.8-51.7-85.4-68.4C345.3 14.8 319.3 6.6 292 2.5 279.6.6 244.2-.3 232 1zm177.5 142.9c21.9 5.7 38.9 20.6 46 40.4 1.2 3.4 2.5 7.9 2.9 9.9l.7 3.8H443c-14.6 0-16-.2-16-1.8 0-.9-1.3-4.5-3-8-3.7-7.9-12.1-16.5-19.4-19.8-7.7-3.5-19.6-5.1-28.4-3.7-19.5 3-30.1 13.9-31 31.9-.6 11.5 1.5 17.9 8.5 25.4 7.1 7.7 15.8 12.1 41.3 20.8 37 12.7 45.9 17.4 56.2 29.6 6.7 8 10.2 16.2 11.8 27.7 3.8 27.8-8.2 51.5-32.1 63.3-11.5 5.7-20.8 7.6-36.9 7.6-26.4 0-45.4-7.1-61-22.9-10.6-10.7-18-26-18-37v-3.2l15.2.3 15.2.3 1.1 5c3.2 14.5 13.5 26 28 31.4 8.4 3.2 22.8 3.9 31.5 1.7 16.9-4.4 26.6-17.4 26.5-35.7-.1-7.6-.5-9.4-3.3-15.2-6.4-13-17-19.5-49.7-30.7-37.8-12.8-48.8-19.4-58.6-34.8-7.8-12.4-9.6-34.7-4-50.8 6.8-19.2 26-33.7 49.6-37.4 10.1-1.5 33.8-.5 43 1.9zm-287.1 96.3c21.5 51 39.3 92.7 39.6 92.7.3 0 16.7-39 36.5-86.7 19.7-47.7 37.1-89.5 38.7-93l2.7-6.2H274v222h-29v-87.8l-.1-87.7-35.1 87.7-35.2 87.8h-26.1l-35-86.8-35-86.8-.3 86.8L78 369H48V258.7c0-60.7.3-110.7.7-111.1.4-.3 8.3-.5 17.6-.4l17 .3 39.1 92.7z"/></svg>